<?xml version="1.0" encoding="UTF-8" standalone="no"?>
<!DOCTYPE svg PUBLIC "-//W3C//DTD SVG 1.1//EN"
 "http://www.w3.org/Graphics/SVG/1.1/DTD/svg11.dtd">
<!-- Generated by graphviz version 14.0.2 (20251019.1705)
 -->
<!-- Title: construction Pages: 1 -->
<svg width="397pt" height="691pt"
 viewBox="0.00 0.00 397.00 691.00" xmlns="http://www.w3.org/2000/svg" xmlns:xlink="http://www.w3.org/1999/xlink">
<g id="graph0" class="graph" transform="scale(1 1) rotate(0) translate(18 672.5)">
<title>construction</title>
<polygon fill="white" stroke="none" points="-18,18 -18,-672.5 379.25,-672.5 379.25,18 -18,18"/>
<text xml:space="preserve" text-anchor="middle" x="180.62" y="-7.2" font-family="Times,serif" font-size="14.00">Current construction build — feeds the density analyses</text>
<!-- Pinned local sources -->
<g id="node1" class="node">
<title>Pinned local sources</title>
<path fill="#eef4fa" stroke="black" d="M139.38,-654.5C139.38,-654.5 56.62,-654.5 56.62,-654.5 50.62,-654.5 44.63,-648.5 44.63,-642.5 44.63,-642.5 44.63,-630.5 44.63,-630.5 44.63,-624.5 50.63,-618.5 56.63,-618.5 56.63,-618.5 139.38,-618.5 139.38,-618.5 145.38,-618.5 151.38,-624.5 151.38,-630.5 151.38,-630.5 151.38,-642.5 151.38,-642.5 151.38,-648.5 145.38,-654.5 139.38,-654.5"/>
<text xml:space="preserve" text-anchor="middle" x="98" y="-632.62" font-family="Helvetica,sans-Serif" font-size="10.00">Pinned local sources</text>
</g>
<!-- new_construction_cleaning -->
<g id="node10" class="node">
<title>new_construction_cleaning</title>
<path fill="#eef4fa" stroke="black" d="M349.25,-357.5C349.25,-357.5 244,-357.5 244,-357.5 238,-357.5 232,-351.5 232,-345.5 232,-345.5 232,-333.5 232,-333.5 232,-327.5 238,-321.5 244,-321.5 244,-321.5 349.25,-321.5 349.25,-321.5 355.25,-321.5 361.25,-327.5 361.25,-333.5 361.25,-333.5 361.25,-345.5 361.25,-345.5 361.25,-351.5 355.25,-357.5 349.25,-357.5"/>
<text xml:space="preserve" text-anchor="middle" x="296.62" y="-335.62" font-family="Helvetica,sans-Serif" font-size="10.00">new construction cleaning</text>
</g>
<!-- Pinned local sources&#45;&gt;new_construction_cleaning -->
<g id="edge1" class="edge">
<title>Pinned local sources&#45;&gt;new_construction_cleaning</title>
<path fill="none" stroke="#64748b" d="M151.85,-631.12C167.63,-627.23 183.91,-620.63 196,-609.5 266.72,-544.35 287.41,-424.57 293.33,-369.11"/>
<polygon fill="#64748b" stroke="#64748b" points="296.81,-369.48 294.29,-359.19 289.84,-368.81 296.81,-369.48"/>
</g>
<!-- border_segment_creation -->
<g id="node2" class="node">
<title>border_segment_creation</title>
<path fill="#eef4fa" stroke="black" d="M146.5,-600.5C146.5,-600.5 49.5,-600.5 49.5,-600.5 43.5,-600.5 37.5,-594.5 37.5,-588.5 37.5,-588.5 37.5,-576.5 37.5,-576.5 37.5,-570.5 43.5,-564.5 49.5,-564.5 49.5,-564.5 146.5,-564.5 146.5,-564.5 152.5,-564.5 158.5,-570.5 158.5,-576.5 158.5,-576.5 158.5,-588.5 158.5,-588.5 158.5,-594.5 152.5,-600.5 146.5,-600.5"/>
<text xml:space="preserve" text-anchor="middle" x="98" y="-578.62" font-family="Helvetica,sans-Serif" font-size="10.00">border segment creation</text>
</g>
<!-- border_segment_creation&#45;&gt;new_construction_cleaning -->
<g id="edge2" class="edge">
<title>border_segment_creation&#45;&gt;new_construction_cleaning</title>
<path fill="none" stroke="#64748b" d="M158.91,-574.46C172.22,-570.45 185.48,-564.45 196,-555.5 254.01,-506.14 280.14,-415.78 290.22,-369.12"/>
<polygon fill="#64748b" stroke="#64748b" points="293.62,-369.97 292.2,-359.47 286.76,-368.57 293.62,-369.97"/>
</g>
<!-- construction_zoning_history -->
<g id="node3" class="node">
<title>construction_zoning_history</title>
<path fill="#eef4fa" stroke="black" d="M152.5,-546.5C152.5,-546.5 43.5,-546.5 43.5,-546.5 37.5,-546.5 31.5,-540.5 31.5,-534.5 31.5,-534.5 31.5,-522.5 31.5,-522.5 31.5,-516.5 37.5,-510.5 43.5,-510.5 43.5,-510.5 152.5,-510.5 152.5,-510.5 158.5,-510.5 164.5,-516.5 164.5,-522.5 164.5,-522.5 164.5,-534.5 164.5,-534.5 164.5,-540.5 158.5,-546.5 152.5,-546.5"/>
<text xml:space="preserve" text-anchor="middle" x="98" y="-524.62" font-family="Helvetica,sans-Serif" font-size="10.00">construction zoning history</text>
</g>
<!-- construction_zoning_history&#45;&gt;new_construction_cleaning -->
<g id="edge3" class="edge">
<title>construction_zoning_history&#45;&gt;new_construction_cleaning</title>
<path fill="none" stroke="#64748b" d="M164.75,-517.43C175.87,-513.6 186.78,-508.44 196,-501.5 241.77,-467.03 271.27,-404.84 285.52,-368.36"/>
<polygon fill="#64748b" stroke="#64748b" points="288.67,-369.93 288.92,-359.34 282.12,-367.46 288.67,-369.93"/>
</g>
<!-- cook_parcel_addresses_download -->
<g id="node4" class="node">
<title>cook_parcel_addresses_download</title>
<path fill="#eef4fa" stroke="black" d="M165.25,-492.5C165.25,-492.5 30.75,-492.5 30.75,-492.5 24.75,-492.5 18.75,-486.5 18.75,-480.5 18.75,-480.5 18.75,-468.5 18.75,-468.5 18.75,-462.5 24.75,-456.5 30.75,-456.5 30.75,-456.5 165.25,-456.5 165.25,-456.5 171.25,-456.5 177.25,-462.5 177.25,-468.5 177.25,-468.5 177.25,-480.5 177.25,-480.5 177.25,-486.5 171.25,-492.5 165.25,-492.5"/>
<text xml:space="preserve" text-anchor="middle" x="98" y="-470.62" font-family="Helvetica,sans-Serif" font-size="10.00">cook parcel addresses download</text>
</g>
<!-- cook_parcel_addresses_download&#45;&gt;new_construction_cleaning -->
<g id="edge4" class="edge">
<title>cook_parcel_addresses_download&#45;&gt;new_construction_cleaning</title>
<path fill="none" stroke="#64748b" d="M177.39,-456.85C183.89,-454.15 190.18,-451.06 196,-447.5 229.82,-426.83 259.28,-391.47 277.22,-366.86"/>
<polygon fill="#64748b" stroke="#64748b" points="279.92,-369.1 282.86,-358.92 274.22,-365.05 279.92,-369.1"/>
</g>
<!-- download_city_building_footprints -->
<g id="node5" class="node">
<title>download_city_building_footprints</title>
<path fill="#eef4fa" stroke="black" d="M163.75,-438.5C163.75,-438.5 32.25,-438.5 32.25,-438.5 26.25,-438.5 20.25,-432.5 20.25,-426.5 20.25,-426.5 20.25,-414.5 20.25,-414.5 20.25,-408.5 26.25,-402.5 32.25,-402.5 32.25,-402.5 163.75,-402.5 163.75,-402.5 169.75,-402.5 175.75,-408.5 175.75,-414.5 175.75,-414.5 175.75,-426.5 175.75,-426.5 175.75,-432.5 169.75,-438.5 163.75,-438.5"/>
<text xml:space="preserve" text-anchor="middle" x="98" y="-416.62" font-family="Helvetica,sans-Serif" font-size="10.00">download city building footprints</text>
</g>
<!-- download_city_building_footprints&#45;&gt;new_construction_cleaning -->
<g id="edge5" class="edge">
<title>download_city_building_footprints&#45;&gt;new_construction_cleaning</title>
<path fill="none" stroke="#64748b" d="M172.16,-402.05C180.29,-399.44 188.38,-396.58 196,-393.5 216.53,-385.2 238.26,-373.77 256.17,-363.55"/>
<polygon fill="#64748b" stroke="#64748b" points="257.76,-366.68 264.66,-358.63 254.25,-360.62 257.76,-366.68"/>
</g>
<!-- download_construction_address_geocodes -->
<g id="node6" class="node">
<title>download_construction_address_geocodes</title>
<path fill="#eef4fa" stroke="black" d="M184,-384.5C184,-384.5 12,-384.5 12,-384.5 6,-384.5 0,-378.5 0,-372.5 0,-372.5 0,-360.5 0,-360.5 0,-354.5 6,-348.5 12,-348.5 12,-348.5 184,-348.5 184,-348.5 190,-348.5 196,-354.5 196,-360.5 196,-360.5 196,-372.5 196,-372.5 196,-378.5 190,-384.5 184,-384.5"/>
<text xml:space="preserve" text-anchor="middle" x="98" y="-362.62" font-family="Helvetica,sans-Serif" font-size="10.00">download construction address geocodes</text>
</g>
<!-- download_construction_address_geocodes&#45;&gt;new_construction_cleaning -->
<g id="edge6" class="edge">
<title>download_construction_address_geocodes&#45;&gt;new_construction_cleaning</title>
<path fill="none" stroke="#64748b" d="M196.45,-353.12C204.49,-352.01 212.55,-350.91 220.39,-349.83"/>
<polygon fill="#64748b" stroke="#64748b" points="220.78,-353.31 230.21,-348.48 219.83,-346.38 220.78,-353.31"/>
</g>
<!-- download_construction_assessor_history -->
<g id="node7" class="node">
<title>download_construction_assessor_history</title>
<path fill="#eef4fa" stroke="black" d="M180.25,-330.5C180.25,-330.5 15.75,-330.5 15.75,-330.5 9.75,-330.5 3.75,-324.5 3.75,-318.5 3.75,-318.5 3.75,-306.5 3.75,-306.5 3.75,-300.5 9.75,-294.5 15.75,-294.5 15.75,-294.5 180.25,-294.5 180.25,-294.5 186.25,-294.5 192.25,-300.5 192.25,-306.5 192.25,-306.5 192.25,-318.5 192.25,-318.5 192.25,-324.5 186.25,-330.5 180.25,-330.5"/>
<text xml:space="preserve" text-anchor="middle" x="98" y="-308.62" font-family="Helvetica,sans-Serif" font-size="10.00">download construction assessor history</text>
</g>
<!-- download_construction_assessor_history&#45;&gt;new_construction_cleaning -->
<g id="edge7" class="edge">
<title>download_construction_assessor_history&#45;&gt;new_construction_cleaning</title>
<path fill="none" stroke="#64748b" d="M192.71,-325.37C201.96,-326.64 211.26,-327.92 220.29,-329.16"/>
<polygon fill="#64748b" stroke="#64748b" points="219.67,-332.6 230.06,-330.5 220.63,-325.67 219.67,-332.6"/>
</g>
<!-- download_construction_historical_parcels -->
<g id="node8" class="node">
<title>download_construction_historical_parcels</title>
<path fill="#eef4fa" stroke="black" d="M181,-276.5C181,-276.5 15,-276.5 15,-276.5 9,-276.5 3,-270.5 3,-264.5 3,-264.5 3,-252.5 3,-252.5 3,-246.5 9,-240.5 15,-240.5 15,-240.5 181,-240.5 181,-240.5 187,-240.5 193,-246.5 193,-252.5 193,-252.5 193,-264.5 193,-264.5 193,-270.5 187,-276.5 181,-276.5"/>
<text xml:space="preserve" text-anchor="middle" x="98" y="-254.62" font-family="Helvetica,sans-Serif" font-size="10.00">download construction historical parcels</text>
</g>
<!-- download_construction_historical_parcels&#45;&gt;new_construction_cleaning -->
<g id="edge8" class="edge">
<title>download_construction_historical_parcels&#45;&gt;new_construction_cleaning</title>
<path fill="none" stroke="#64748b" d="M172.16,-276.95C180.29,-279.56 188.38,-282.42 196,-285.5 216.53,-293.8 238.26,-305.23 256.17,-315.45"/>
<polygon fill="#64748b" stroke="#64748b" points="254.25,-318.38 264.66,-320.37 257.76,-312.32 254.25,-318.38"/>
</g>
<!-- download_parcel_universe_data -->
<g id="node9" class="node">
<title>download_parcel_universe_data</title>
<path fill="#eef4fa" stroke="black" d="M160,-222.5C160,-222.5 36,-222.5 36,-222.5 30,-222.5 24,-216.5 24,-210.5 24,-210.5 24,-198.5 24,-198.5 24,-192.5 30,-186.5 36,-186.5 36,-186.5 160,-186.5 160,-186.5 166,-186.5 172,-192.5 172,-198.5 172,-198.5 172,-210.5 172,-210.5 172,-216.5 166,-222.5 160,-222.5"/>
<text xml:space="preserve" text-anchor="middle" x="98" y="-200.62" font-family="Helvetica,sans-Serif" font-size="10.00">download parcel universe data</text>
</g>
<!-- download_parcel_universe_data&#45;&gt;new_construction_cleaning -->
<g id="edge9" class="edge">
<title>download_parcel_universe_data&#45;&gt;new_construction_cleaning</title>
<path fill="none" stroke="#64748b" d="M172.36,-220.15C180.63,-223.29 188.69,-227.03 196,-231.5 229.82,-252.17 259.28,-287.53 277.22,-312.14"/>
<polygon fill="#64748b" stroke="#64748b" points="274.22,-313.95 282.86,-320.08 279.92,-309.9 274.22,-313.95"/>
</g>
<!-- new_construction_corrections -->
<g id="node11" class="node">
<title>new_construction_corrections</title>
<path fill="#eef4fa" stroke="black" d="M156.62,-168.5C156.62,-168.5 39.38,-168.5 39.38,-168.5 33.38,-168.5 27.38,-162.5 27.38,-156.5 27.38,-156.5 27.38,-144.5 27.38,-144.5 27.38,-138.5 33.38,-132.5 39.38,-132.5 39.38,-132.5 156.62,-132.5 156.62,-132.5 162.62,-132.5 168.62,-138.5 168.62,-144.5 168.62,-144.5 168.62,-156.5 168.62,-156.5 168.62,-162.5 162.62,-168.5 156.62,-168.5"/>
<text xml:space="preserve" text-anchor="middle" x="98" y="-146.62" font-family="Helvetica,sans-Serif" font-size="10.00">new construction corrections</text>
</g>
<!-- new_construction_corrections&#45;&gt;new_construction_cleaning -->
<g id="edge10" class="edge">
<title>new_construction_corrections&#45;&gt;new_construction_cleaning</title>
<path fill="none" stroke="#64748b" d="M169.04,-163.12C178.65,-166.76 187.97,-171.45 196,-177.5 241.77,-211.97 271.27,-274.16 285.52,-310.64"/>
<polygon fill="#64748b" stroke="#64748b" points="282.12,-311.54 288.92,-319.66 288.67,-309.07 282.12,-311.54"/>
</g>
<!-- prepare_construction_assessor_history -->
<g id="node12" class="node">
<title>prepare_construction_assessor_history</title>
<path fill="#eef4fa" stroke="black" d="M175.75,-114.5C175.75,-114.5 20.25,-114.5 20.25,-114.5 14.25,-114.5 8.25,-108.5 8.25,-102.5 8.25,-102.5 8.25,-90.5 8.25,-90.5 8.25,-84.5 14.25,-78.5 20.25,-78.5 20.25,-78.5 175.75,-78.5 175.75,-78.5 181.75,-78.5 187.75,-84.5 187.75,-90.5 187.75,-90.5 187.75,-102.5 187.75,-102.5 187.75,-108.5 181.75,-114.5 175.75,-114.5"/>
<text xml:space="preserve" text-anchor="middle" x="98" y="-92.62" font-family="Helvetica,sans-Serif" font-size="10.00">prepare construction assessor history</text>
</g>
<!-- prepare_construction_assessor_history&#45;&gt;new_construction_cleaning -->
<g id="edge11" class="edge">
<title>prepare_construction_assessor_history&#45;&gt;new_construction_cleaning</title>
<path fill="none" stroke="#64748b" d="M183.44,-114.79C187.91,-117.33 192.14,-120.21 196,-123.5 254.01,-172.86 280.14,-263.22 290.22,-309.88"/>
<polygon fill="#64748b" stroke="#64748b" points="286.76,-310.43 292.2,-319.53 293.62,-309.03 286.76,-310.43"/>
</g>
<!-- ward_panel_create -->
<g id="node13" class="node">
<title>ward_panel_create</title>
<path fill="#eef4fa" stroke="black" d="M132.62,-60.5C132.62,-60.5 63.38,-60.5 63.38,-60.5 57.38,-60.5 51.38,-54.5 51.38,-48.5 51.38,-48.5 51.38,-36.5 51.38,-36.5 51.38,-30.5 57.38,-24.5 63.38,-24.5 63.38,-24.5 132.62,-24.5 132.62,-24.5 138.62,-24.5 144.62,-30.5 144.62,-36.5 144.62,-36.5 144.62,-48.5 144.62,-48.5 144.62,-54.5 138.62,-60.5 132.62,-60.5"/>
<text xml:space="preserve" text-anchor="middle" x="98" y="-38.62" font-family="Helvetica,sans-Serif" font-size="10.00">ward panel create</text>
</g>
<!-- ward_panel_create&#45;&gt;new_construction_cleaning -->
<g id="edge12" class="edge">
<title>ward_panel_create&#45;&gt;new_construction_cleaning</title>
<path fill="none" stroke="#64748b" d="M144.85,-46.31C162.68,-49.9 182.11,-56.71 196,-69.5 266.72,-134.65 287.41,-254.43 293.33,-309.89"/>
<polygon fill="#64748b" stroke="#64748b" points="289.84,-310.19 294.29,-319.81 296.81,-309.52 289.84,-310.19"/>
</g>
</g>
</svg>
